<svg xmlns="http://www.w3.org/2000/svg" width="56" height="60" viewBox="0 0 56 60">
  <metadata><?xpacket begin="﻿" id="W5M0MpCehiHzreSzNTczkc9d"?>
<x:xmpmeta xmlns:x="adobe:ns:meta/" x:xmptk="Adobe XMP Core 5.6-c142 79.160924, 2017/07/13-01:06:39        ">
   <rdf:RDF xmlns:rdf="http://www.w3.org/1999/02/22-rdf-syntax-ns#">
      <rdf:Description rdf:about=""/>
   </rdf:RDF>
</x:xmpmeta>
                                                                                                    
                                                                                                    
                                                                                                    
                                                                                                    
                                                                                                    
                                                                                                    
                                                                                                    
                                                                                                    
                                                                                                    
                                                                                                    
                                                                                                    
                                                                                                    
                                                                                                    
                                                                                                    
                                                                                                    
                                                                                                    
                                                                                                    
                                                                                                    
                                                                                                    
                                                                                                    
                           
<?xpacket end="w"?></metadata>
<defs>
    <style>
      .cls-1 {
        fill: #c87066;
        fill-rule: evenodd;
      }
    </style>
  </defs>
  <path class="cls-1" d="M605,2545.05h-1v-13.51a6.3,6.3,0,0,0-6.312-6.27H579.011l-15.111-5.23a0.015,0.015,0,0,1-.016-0.01h-0.016c-0.011,0-.022-0.01-0.033-0.01a0.1,0.1,0,0,1-.052-0.01h-0.046a0.1,0.1,0,0,0-.054-0.01h-0.14a0.115,0.115,0,0,1-.057.01,0.055,0.055,0,0,0-.038.01,0.117,0.117,0,0,0-.058.01,0.049,0.049,0,0,0-.035.01,0.13,0.13,0,0,0-.057.02,0.043,0.043,0,0,0-.033.01,0.13,0.13,0,0,0-.057.02c-0.01.01-.019,0.01-0.029,0.02a0.079,0.079,0,0,0-.056.03c-0.009,0-.018.01-0.027,0.01a0.172,0.172,0,0,0-.053.04,0.046,0.046,0,0,0-.026.02,0.17,0.17,0,0,0-.048.04,0.046,0.046,0,0,0-.026.02c-0.014.01-.029,0.03-0.043,0.04l-0.025.03c-0.012.01-.025,0.03-0.037,0.04s-0.016.03-.024,0.04-0.021.03-.031,0.04-0.015.03-.023,0.04-0.017.03-.024,0.05-0.014.03-.021,0.04-0.013.03-.019,0.05-0.012.03-.017,0.04a0.21,0.21,0,0,1-.011.04s0,0.01,0,.01a0.146,0.146,0,0,1,0,.02l-1.139,4.52h-3.209a6.3,6.3,0,0,0-6.312,6.25s0,0.01,0,.02v34.28a1,1,0,0,0,1.993,0V2536.1a6.333,6.333,0,0,0,4.32,1.7H597.7a4.3,4.3,0,0,1,4.315,4.29v6.92H590.959c-0.032.01-.063,0.01-0.094,0.02h-0.014a0.22,0.22,0,0,0-.077.02h-0.017l-0.066.03a0.028,0.028,0,0,0-.025.01,0.115,0.115,0,0,0-.054.02c-0.012.01-.024,0.01-0.035,0.02a0.073,0.073,0,0,0-.04.02l-0.044.03a0.046,0.046,0,0,0-.028.02,0.163,0.163,0,0,0-.05.04c-0.007,0-.014.01-0.021,0.01-0.017.02-.035,0.03-0.051,0.05l-0.028.03c-0.013.01-.026,0.03-0.038,0.04-0.021.03-.04,0.05-0.058,0.08h0l-5.315,7.91a1.194,1.194,0,0,0-.094.18,0.354,0.354,0,0,0-.024.07,0.031,0.031,0,0,0-.008.02c-0.007.02-.013,0.05-0.018,0.07a0.146,0.146,0,0,0,0,.02,0.686,0.686,0,0,0-.01.07c0,0.01,0,.02,0,0.03s0,0.03,0,.05,0,0.03,0,.04a0.345,0.345,0,0,0,0,.04c0,0.02,0,.04,0,0.06s0,0.02,0,.03,0.006,0.04.01,0.06a0.038,0.038,0,0,0,0,.02c0,0.03.011,0.05,0.018,0.08a0.031,0.031,0,0,1,.008.02c0.007,0.02.015,0.04,0.024,0.07a0.823,0.823,0,0,0,.094.17l5.315,7.91h0c0.021,0.03.045,0.06,0.069,0.09l0.026,0.03a0.2,0.2,0,0,0,.052.05l0.032,0.03c0.02,0.02.04,0.03,0.061,0.05s0.018,0.01.027,0.02l0.093,0.06a0.028,0.028,0,0,1,.025.01l0.078,0.03a0.039,0.039,0,0,0,.031.01l0.078,0.03a0.042,0.042,0,0,1,.032.01c0.027,0,.054.01,0.082,0.01a0.037,0.037,0,0,1,.03.01h11.077v6.93a4.3,4.3,0,0,1-4.319,4.28H558.311a4.3,4.3,0,0,1-4.319-4.28,0.134,0.134,0,0,0,0-.02v-3.94a1,1,0,0,0-1.993,0v3.96c0,0.01,0,.02,0,0.03a6.292,6.292,0,0,0,6.311,6.23h39.382a6.3,6.3,0,0,0,6.313-6.26h0v-6.93h1a2.98,2.98,0,0,0,2.99-2.96v-15.83A2.983,2.983,0,0,0,605,2545.05Zm-40.659-22.83,24.546,8.33H562.245Zm37.669,15.3a6.331,6.331,0,0,0-4.319-1.7H558.311a4.285,4.285,0,1,1,0-8.57h2.71l-0.83,3.3h-1.88a0.99,0.99,0,1,0,0,1.98h38.052a0.99,0.99,0,1,0,0-1.98h-1.81l-9.962-3.3h13.1a4.307,4.307,0,0,1,4.319,4.29v5.98ZM606,2563.85h0a0.99,0.99,0,0,1-1,.98H591.58l-4.651-6.92,4.651-6.92h13.463a3.334,3.334,0,0,0,.955-0.17v13.03h0Zm-1-14.84h-1v-1.98h1A0.99,0.99,0,1,1,605,2549.01Zm-9.7,12.8a3.985,3.985,0,1,1,4.013-3.98A4,4,0,0,1,595.3,2561.81Zm0-6.14a2.16,2.16,0,1,0,2.177,2.16A2.165,2.165,0,0,0,595.3,2555.67Z" transform="translate(-552 -2520)"/>
</svg>
